<svg preserveAspectRatio="none" overflow="visible" style="display: block;" width="15.8333" height="11.6667" viewBox="0 0 15.8333 11.6667" fill="none" xmlns="http://www.w3.org/2000/svg">
<g id="Container">
<path id="Icon" d="M5.83333 11.6667V10H7.5C7.29167 8.08333 6.47222 6.49306 5.04167 5.22917C3.61111 3.96528 1.93056 3.33333 0 3.33333V1.66667C1.79167 1.66667 3.4375 2.13889 4.9375 3.08333C6.4375 4.02778 7.56944 5.30556 8.33333 6.91667C8.86111 5.79167 9.55556 4.79514 10.4167 3.92708C11.2778 3.05903 12.2431 2.30556 13.3125 1.66667H10V0H15.8333V5.83333H14.1667V3.08333C12.875 3.875 11.7639 4.85417 10.8333 6.02083C9.90278 7.1875 9.34722 8.51389 9.16667 10H10.8333V11.6667H5.83333V11.6667" fill="#565E74"/>
</g>
</svg>
